<svg width="40" height="42" viewBox="0 0 40 42" fill="none" xmlns="http://www.w3.org/2000/svg">
<g clip-path="url(#clip0_3_3051)">
<path d="M37.9068 39.1368C37.9068 40.718 29.4212 42 18.9534 42C8.48561 42 0 40.718 0 39.1368C0 38.0174 4.25351 37.0477 10.4525 36.5772C13.0087 36.3827 15.897 36.2737 18.9534 36.2737C20.2098 36.2737 21.4375 36.2922 22.6248 36.3273C31.3355 36.5859 37.9068 37.7453 37.9068 39.1368Z" fill="#005C1A"/>
<path opacity="0.1" d="M16.5078 39.7218C20.5261 39.7218 23.7835 39.3221 23.7835 38.829C23.7835 38.3359 20.5261 37.9362 16.5078 37.9362C12.4896 37.9362 9.23218 38.3359 9.23218 38.829C9.23218 39.3221 12.4896 39.7218 16.5078 39.7218Z" fill="black"/>
<path d="M16.4772 39.4755C20.276 39.4755 23.3555 36.1674 23.3555 32.0867C23.3555 28.006 20.276 24.6979 16.4772 24.6979C12.6785 24.6979 9.599 28.006 9.599 32.0867C9.599 36.1674 12.6785 39.4755 16.4772 39.4755Z" fill="#7C7C7C"/>
<path d="M18.6477 36.4584H14.3679V40.3991H18.6477V36.4584Z" fill="#FFBC40"/>
<path d="M24.242 37.4128L23.9974 38.7675L25.5871 39.0137L26.6265 38.398L26.5653 37.4128H24.242Z" fill="#575A89"/>
<path d="M16.2326 11.983C16.2326 11.983 16.1104 13.3992 15.8047 13.4608C15.499 13.5223 16.4772 15.9853 16.4772 15.9853H17.9446L19.1062 15.6774L18.556 14.3228C18.556 14.3228 17.8223 13.3376 18.3725 12.5372C18.9228 11.7367 16.2326 11.983 16.2326 11.983Z" fill="#A0616A"/>
<path opacity="0.1" d="M16.2326 11.983C16.2326 11.983 16.1104 13.3992 15.8047 13.4608C15.499 13.5223 16.4772 15.9853 16.4772 15.9853H17.9446L19.1062 15.6774L18.556 14.3228C18.556 14.3228 17.8223 13.3376 18.3725 12.5372C18.9228 11.7367 16.2326 11.983 16.2326 11.983Z" fill="black"/>
<path d="M13.1756 22.8199C13.1756 22.8199 11.586 25.8986 12.8699 26.5143C14.1539 27.13 14.4596 27.0685 14.4596 27.2532C14.4596 27.4379 14.215 27.3763 14.3373 27.6842C14.4596 27.9921 14.0927 29.2235 14.4596 29.9624C14.8264 30.7013 14.7041 31.2554 14.7041 31.2554C14.7041 31.2554 14.7041 31.317 14.8264 31.5633C14.9487 31.8096 15.0098 31.9943 14.9487 32.1175C14.8875 32.2406 14.5207 33.0411 14.8875 33.2258C15.2544 33.4105 17.1497 33.5337 17.3331 33.2258C17.5166 32.9179 17.1497 32.7332 17.3331 32.5485C17.5166 32.3638 17.6388 32.3022 17.5166 32.179C17.3943 32.0559 17.272 30.5166 17.272 30.5166C17.272 30.5166 17.5777 28.7309 17.4554 28.4846C17.3331 28.2384 17.1497 27.9921 17.272 27.8073C17.3943 27.6226 17.5166 27.6842 17.5777 27.4379C17.6388 27.1916 17.7611 26.6374 17.7611 26.6374L18.4337 26.5759L20.0233 26.8837C20.0233 26.8837 21.7964 28.8541 23.7528 29.4698C23.7528 29.4698 24.3031 30.024 24.4865 30.024C24.6699 30.024 24.6699 30.024 24.6088 30.1471C24.5477 30.2703 24.3642 30.2703 24.4865 30.3934C24.6088 30.5166 24.7922 30.3318 24.6699 30.5166C24.5477 30.7013 24.4254 30.7013 24.5477 30.8244C24.6699 30.9476 24.4865 31.6249 24.4865 31.6865C24.4865 31.748 23.9363 37.5359 24.1197 37.6591C24.3031 37.7822 26.871 38.1517 27.0544 37.6591C27.2378 37.1665 26.9321 36.5508 26.9321 36.5508C26.9321 36.5508 27.8492 29.162 27.6047 28.6694C27.3601 28.1768 26.5041 25.9601 21.9186 24.544C21.9186 24.544 20.6347 24.2977 20.6347 24.1129C20.6347 23.9282 20.5124 22.7583 20.2679 22.6968C20.0233 22.6352 18.6171 22.5736 18.6171 22.5736L16.844 23.1278L14.3984 22.6968L13.1756 22.8199Z" fill="#2F2E41"/>
<path d="M15.3156 33.1642L15.0099 34.2725C15.0099 34.2725 14.7653 36.0582 15.071 36.4892C15.3111 36.8277 15.7398 37.2423 16.535 37.315C16.7578 37.3356 16.9809 37.279 17.1675 37.1545C17.354 37.03 17.4928 36.8451 17.5608 36.6305C17.5699 36.6048 17.5756 36.578 17.5777 36.5507C17.5777 36.4276 17.3943 34.9498 17.3943 34.9498L17.0886 33.4105L17.0275 32.9795L15.3156 33.1642Z" fill="#2F2E41"/>
<path d="M24.242 38.4596C24.242 38.4596 23.9363 38.1517 23.8752 38.4596C23.8141 38.7674 23.5695 40.0605 23.9975 40.122C24.4255 40.1836 28.5218 40.7993 28.9498 40.5531C29.3778 40.3068 30.1726 39.9373 29.6835 39.7526C29.1944 39.5679 27.7882 39.0137 27.7882 39.0137C27.7882 39.0137 26.9933 37.967 26.8711 37.9054C26.7488 37.8438 26.0762 37.967 25.7705 38.2133C25.4648 38.4596 24.242 38.4596 24.242 38.4596Z" fill="#2F2E41"/>
<path d="M17.7 13.276C18.7468 13.276 19.5954 12.4215 19.5954 11.3673C19.5954 10.3131 18.7468 9.4585 17.7 9.4585C16.6533 9.4585 15.8047 10.3131 15.8047 11.3673C15.8047 12.4215 16.6533 13.276 17.7 13.276Z" fill="#A0616A"/>
<path d="M17.5166 15.6774L16.783 14.8769L15.9697 13.276C15.9697 13.276 15.3767 13.0913 15.2545 13.3992C15.1322 13.707 12.9311 14.6922 12.9311 14.6922C12.9311 14.6922 13.4814 19.8644 13.2368 20.357C12.9923 20.8495 12.5643 22.8199 12.9311 23.0046C13.298 23.1893 15.0099 23.0046 15.5602 23.2509C16.1104 23.4972 17.7001 23.4972 18.128 23.1893C18.556 22.8815 18.6783 22.6352 19.1063 22.8199C19.4706 22.9772 20.3224 17.6009 20.5676 15.9987C20.5883 15.8642 20.5711 15.7265 20.5181 15.6012C20.4651 15.476 20.3783 15.3682 20.2675 15.29C19.7189 14.9025 18.7309 14.2347 18.556 14.3228C18.3115 14.4459 17.5166 15.6774 17.5166 15.6774Z" fill="#575A89"/>
<path d="M20.1456 15.4311C20.2892 15.4672 20.4183 15.5468 20.5157 15.659C20.6131 15.7712 20.6741 15.9108 20.6904 16.0589L21.185 20.5417C21.185 20.5417 19.9622 23.1893 19.3508 21.4037C18.7394 19.6181 20.1456 15.4311 20.1456 15.4311Z" fill="#575A89"/>
<path d="M20.0233 20.9727L21.3684 20.6033C21.3684 20.6033 21.6129 22.3273 21.8575 22.3273C22.1021 22.3273 21.0015 23.3125 20.4513 23.1894C19.901 23.0662 19.1062 22.6352 19.0451 22.3273C18.9839 22.0195 19.5953 20.7264 19.5953 20.7264L20.0233 20.9727Z" fill="#575A89"/>
<path d="M16.2692 12.1907C16.3981 11.9045 16.3757 11.5707 16.4822 11.2753C16.5393 11.1172 16.6319 10.9744 16.7528 10.8583C16.8737 10.7421 17.0196 10.6557 17.1791 10.6057C17.3387 10.5558 17.5075 10.5436 17.6725 10.5703C17.8375 10.5969 17.9941 10.6616 18.1302 10.7593C18.2672 10.8577 18.4046 10.996 18.5719 10.9772C18.7521 10.957 18.9128 10.7546 19.0784 10.8287C19.262 10.911 19.2124 11.2423 19.3984 11.3188C19.4963 11.3591 19.612 11.2971 19.6685 11.207C19.7179 11.1124 19.7448 11.0075 19.7471 10.9006C19.7728 10.638 19.796 10.3601 19.6829 10.1221C19.6353 10.0414 19.5938 9.95719 19.5589 9.87022C19.5391 9.78901 19.5311 9.70533 19.5353 9.62181C19.5343 9.31314 19.5119 8.99117 19.3576 8.72443C19.1865 8.42844 18.8701 8.23917 18.54 8.15659C18.2099 8.074 17.8641 8.08666 17.5252 8.11556C16.9649 8.16332 16.3807 8.26571 15.9393 8.61645C15.8793 8.66059 15.8277 8.71522 15.7869 8.77775C15.7481 8.85202 15.7207 8.93177 15.7057 9.01428C15.6102 9.40565 15.4671 9.78364 15.2797 10.1397C15.1895 10.2906 15.1158 10.4509 15.0598 10.6178C15.013 10.7874 15.0162 10.9807 15.1142 11.1265C15.1939 11.2451 15.3215 11.3084 15.4217 11.4054C15.521 11.5016 15.5674 11.6865 15.6774 11.7593C15.7734 11.8228 15.8884 11.7779 15.9863 11.8453C16.112 11.9318 16.1211 12.1214 16.2692 12.1907Z" fill="#2F2E41"/>
<path d="M17.8223 16.601L18.0057 16.2316C18.0057 16.2316 20.6958 17.032 21.2461 17.7709C21.2461 17.7709 22.5912 16.9089 23.3249 17.032L24.0585 17.1552L21.7964 19.1871L18.9228 18.9408L17.8223 16.601Z" fill="#F2F2F2"/>
<path d="M17.7 16.2316L15.1932 19.7412L18.8005 21.5269C18.8005 21.5269 19.1377 21.7116 19.3971 21.5269L21.7964 20.4186L24.0585 17.1552L21.7964 18.3251C21.7964 18.3251 21.5518 17.8325 21.0627 18.0788L17.7 16.2316Z" fill="#26238C"/>
<path d="M21.5518 22.4505L22.0409 21.1574C22.0409 21.1574 23.1414 19.7412 22.53 19.0639C21.9186 18.3866 21.2461 21.0343 21.2461 21.0343L21.5518 22.4505Z" fill="#A0616A"/>
<path d="M15.9084 22.2441L16.9757 21.3728C16.9757 21.3728 18.6332 20.7038 18.4418 19.809C18.2503 18.9141 16.3495 20.8646 16.3495 20.8646L15.9084 22.2441Z" fill="#A0616A"/>
<path opacity="0.1" d="M13.2673 16.016H13.2062C13.2062 16.016 12.2585 14.8769 12.0751 16.4163C11.8917 17.9556 11.2803 23.0662 12.8699 23.2509C14.4596 23.4356 15.5906 22.4812 15.5906 22.4812C15.5906 22.4812 16.7523 20.6956 16.3243 20.6956C16.1173 20.6956 15.5541 20.6019 15.0404 20.634C14.4924 20.6683 14 20.8237 14.0316 20.6648C14.0927 20.357 14.9792 16.447 13.2673 16.016Z" fill="black"/>
<path d="M13.1757 14.8153L12.9311 14.6922C12.9311 14.6922 11.9529 14.8769 11.7694 16.4163C11.586 17.9556 10.9746 23.0662 12.5643 23.2509C14.1539 23.4356 16.2938 23.0046 16.2938 23.0046C16.2938 23.0046 16.7218 20.6648 16.2938 20.6648C15.8658 20.6648 13.6648 20.9727 13.7259 20.6648C13.7871 20.3569 14.8876 15.2464 13.1757 14.8153Z" fill="#575A89"/>
<path d="M20.6653 21.7424L21.3395 20.7018L21.7658 22.4197L20.6653 22.9123V21.7424Z" fill="#575A89"/>
<path d="M6.81545 6.90321C7.72715 6.90321 8.46623 6.15889 8.46623 5.24073C8.46623 4.32256 7.72715 3.57825 6.81545 3.57825C5.90375 3.57825 5.16467 4.32256 5.16467 5.24073C5.16467 6.15889 5.90375 6.90321 6.81545 6.90321Z" fill="#F2F2F2"/>
<path d="M8.77197 17.6169H4.85901V21.5576H8.77197V17.6169Z" fill="#F2F2F2"/>
<path d="M22.7441 0L23.7345 1.72756L24.7248 3.45513H22.7441H20.7633L21.7537 1.72756L22.7441 0Z" fill="#F2F2F2"/>
</g>
<defs>
<clipPath id="clip0_3_3051">
<rect width="40" height="42" fill="white"/>
</clipPath>
</defs>
</svg>
