<svg width="48" height="48" viewBox="0 0 48 48" fill="none" xmlns="http://www.w3.org/2000/svg">
<path d="M2 4.5C2 4.5 9 9.50001 12.5 9.50001C16 9.50001 19 4.5 24 4.50001C29 4.50003 32.5 9.50001 35.5 9.50001C38.5 9.50001 46 4.5 46 4.5" stroke="#26CFA1" stroke-width="3" stroke-linecap="round" stroke-linejoin="round"/>
<path d="M2 15.5C2 15.5 9 20.5 12.5 20.5C16 20.5 19 15.5 24 15.5C29 15.5 32.5 20.5 35.5 20.5C38.5 20.5 46 15.5 46 15.5" stroke="#26CFA1" stroke-width="3" stroke-linecap="round" stroke-linejoin="round"/>
<path d="M2 27.5C2 27.5 9 32.5 12.5 32.5C16 32.5 19 27.5 24 27.5C29 27.5 32.5 32.5 35.5 32.5C38.5 32.5 46 27.5 46 27.5" stroke="#26CFA1" stroke-width="3" stroke-linecap="round" stroke-linejoin="round"/>
<path d="M2 38.5C2 38.5 9 43.5 12.5 43.5C16 43.5 19 38.5 24 38.5C29 38.5 32.5 43.5 35.5 43.5C38.5 43.5 46 38.5 46 38.5" stroke="#26CFA1" stroke-width="3" stroke-linecap="round" stroke-linejoin="round"/>
</svg>

