<svg width="42" height="27" viewBox="0 0 42 27" fill="none" xmlns="http://www.w3.org/2000/svg">
<g clip-path="url(#clip0_3_3078)">
<path d="M30.646 6.57539C30.646 9.1658 26.6731 16.8051 24.3952 20.9723C24.2407 21.2551 24.0149 21.4906 23.7412 21.6546C23.4674 21.8186 23.1556 21.905 22.8381 21.905C22.5205 21.905 22.2087 21.8186 21.935 21.6546C21.6612 21.4906 21.4354 21.2551 21.2809 20.9723C19.003 16.8051 15.0302 9.1658 15.0302 6.57539C15.0302 2.9439 18.5259 0 22.8381 0C27.1503 0 30.646 2.9439 30.646 6.57539Z" fill="#B0B0B0"/>
<path d="M22.8748 10.8344C25.2232 10.8344 27.127 8.89413 27.127 6.50065C27.127 4.10717 25.2232 2.16687 22.8748 2.16687C20.5263 2.16687 18.6226 4.10717 18.6226 6.50065C18.6226 8.89413 20.5263 10.8344 22.8748 10.8344Z" fill="white"/>
<path d="M5.13063 10.4219C6.53725 10.4219 7.67753 9.25976 7.67753 7.82617C7.67753 6.39257 6.53725 5.23041 5.13063 5.23041C3.72402 5.23041 2.58374 6.39257 2.58374 7.82617C2.58374 9.25976 3.72402 10.4219 5.13063 10.4219Z" fill="#B0B0B0"/>
<path d="M22.8381 27C26.243 27 29.0032 26.7828 29.0032 26.515C29.0032 26.2471 26.243 26.0299 22.8381 26.0299C19.4332 26.0299 16.673 26.2471 16.673 26.515C16.673 26.7828 19.4332 27 22.8381 27Z" fill="#B0B0B0"/>
<path opacity="0.4" d="M4.6121 10.1345C4.74172 9.32042 4.19926 8.55336 3.40048 8.42125C2.60169 8.28914 1.84907 8.842 1.71945 9.65611C1.58982 10.4702 2.13228 11.2373 2.93106 11.3694C3.72985 11.5015 4.48247 10.9486 4.6121 10.1345Z" fill="#B0B0B0"/>
<path d="M37.4465 17.5989C25.9077 13.1904 11.8344 17.4883 3.70899 26.2799C3.66281 26.3292 3.61662 26.3793 3.5719 26.4293H3.448C3.49052 26.3793 3.53451 26.3292 3.57776 26.2799C11.8717 16.8196 25.7581 13.0492 37.4465 17.5989Z" fill="#3F3D56"/>
<path d="M40.5998 19.0612C39.5798 18.5068 38.5267 18.0184 37.4465 17.5989C38.5295 18.0115 39.5831 18.5001 40.5998 19.0612Z" fill="#3F3D56"/>
<path opacity="0.4" d="M34.2845 14.6628C35.1721 14.6628 35.8916 13.9295 35.8916 13.0249C35.8916 12.1203 35.1721 11.387 34.2845 11.387C33.397 11.387 32.6775 12.1203 32.6775 13.0249C32.6775 13.9295 33.397 14.6628 34.2845 14.6628Z" fill="#B0B0B0"/>
<path d="M34.4634 25.6232C34.5876 26.0911 35.013 26.3808 35.013 26.3808C35.013 26.3808 35.237 25.912 35.1128 25.4441C34.9886 24.9762 34.5632 24.6865 34.5632 24.6865C34.5632 24.6865 34.3392 25.1553 34.4634 25.6232Z" fill="#3F3D56"/>
<path d="M34.646 25.5227C34.9868 25.8608 35.0284 26.3805 35.0284 26.3805C35.0284 26.3805 34.5175 26.3521 34.1767 26.014C33.8359 25.6759 33.7943 25.1561 33.7943 25.1561C33.7943 25.1561 34.3052 25.1846 34.646 25.5227Z" fill="#B0B0B0"/>
<path d="M0.246373 19.1176V19.8394L0.211182 19.8782V19.1101C0.222912 19.1124 0.234645 19.1153 0.246373 19.1176Z" fill="#3F3D56"/>
<path d="M2.50297 26.2796C2.49271 26.2968 2.48171 26.3139 2.47071 26.3311H0.211182V19.1535L0.246373 19.1176L0.546226 19.4651V18.957H1.4993V20.5694L2.46192 21.6835L2.47071 21.694C2.48244 21.7313 2.49344 21.7687 2.50444 21.8061C2.50451 21.8066 2.50477 21.8072 2.50517 21.8076C2.64954 22.2784 2.768 22.7571 2.86001 23.2414C3.06968 24.3839 3.03816 25.4315 2.50297 26.2796Z" fill="#B0B0B0"/>
<path d="M1.00446 23.0851H0.397827V23.6003H1.00446V23.0851Z" fill="#3F3D56"/>
<path d="M1.00446 24.0125H0.397827V24.5277H1.00446V24.0125Z" fill="#3F3D56"/>
<path d="M19.6912 22.1061L19.3879 21.5909L22.2189 19.1178C24.3118 18.0911 26.8346 18.3874 29.4985 19.1178V19.8391L26.8698 22.7244L23.8365 23.3427L19.6912 22.1061Z" fill="#3F3D56"/>
<path d="M30.7516 20.5691C31.2543 19.9992 31.3241 19.4573 30.7516 18.9569H29.7985V19.4653L29.4985 19.1179L27.072 21.591L26.6675 22.0031L26.162 24.064L27.072 26.331H31.7228V21.694L30.7516 20.5691Z" fill="#B0B0B0"/>
<path d="M19.3878 21.5909H27.0718V26.331H19.3878C18.4582 25.306 18.9411 23.4376 19.3878 21.5909Z" fill="#B0B0B0"/>
<path d="M26.0103 23.0851H24.3926V24.5277H26.0103V23.0851Z" fill="#3F3D56"/>
<path d="M23.7354 23.0336H22.3199V26.331H23.7354V23.0336Z" fill="#B0B0B0"/>
<path d="M20.7023 23.5488V23.0336H20.0957V23.5488H20.6517H20.7023Z" fill="#3F3D56"/>
<path d="M20.6517 23.9609H20.0957V24.4762H20.7023V23.9609H20.6517Z" fill="#3F3D56"/>
<path d="M21.7133 23.0336H21.1067V23.5488H21.7133V23.0336Z" fill="#3F3D56"/>
<path d="M21.7133 23.9609H21.1067V24.4762H21.7133V23.9609Z" fill="#3F3D56"/>
<path d="M29.2457 23.6004V23.0851H28.639V23.6004H29.1951H29.2457Z" fill="#3F3D56"/>
<path d="M29.1951 24.0125H28.639V24.5277H29.2457V24.0125H29.1951Z" fill="#3F3D56"/>
<path d="M30.2567 23.0851H29.65V23.6003H30.2567V23.0851Z" fill="#3F3D56"/>
<path d="M30.2567 24.0125H29.65V24.5277H30.2567V24.0125Z" fill="#3F3D56"/>
<path d="M6.00928 13.4504L5.50378 13.0382L8.33472 10.462H15.5132V12.7291L10.8624 15.9235L6.00928 13.4504Z" fill="#3F3D56"/>
<path d="M16.8219 11.9071V10.5135H15.8688V10.8548L15.5131 10.462L13.1876 13.0382L12.2777 13.6565L10.8668 24.1624L12.9946 26.331H17.9396C18.6973 22.4464 19.2981 18.4559 17.9396 13.1412L16.8219 11.9071Z" fill="#B0B0B0"/>
<path d="M5.50372 13.0382H13.1877V26.331H5.50372C4.66287 21.1669 4.25221 16.3779 5.50372 13.0382Z" fill="#B0B0B0"/>
<path d="M9.9018 23.0851H8.48633V26.331H9.9018V23.0851Z" fill="#B0B0B0"/>
<path d="M6.96976 24.0125V23.4973H6.36316V24.0125H6.91924H6.96976Z" fill="#3F3D56"/>
<path d="M6.91924 24.4247H6.36316V24.94H6.96976V24.4247H6.91924Z" fill="#3F3D56"/>
<path d="M7.98078 23.4973H7.37415V24.0125H7.98078V23.4973Z" fill="#3F3D56"/>
<path d="M11.0645 24.4247H10.5084V24.94H11.115V24.4247H11.0645Z" fill="#3F3D56"/>
<path d="M12.126 23.4973H11.5194V24.0125H12.126V23.4973Z" fill="#3F3D56"/>
<path d="M12.126 24.4247H11.5194V24.9399H12.126V24.4247Z" fill="#3F3D56"/>
<path d="M15.3615 13.7079V13.1927H14.7549V13.7079H15.311H15.3615Z" fill="#3F3D56"/>
<path d="M15.311 14.1202H14.7549V14.6354H15.3615V14.1202H15.311Z" fill="#3F3D56"/>
<path d="M16.3725 13.1927H15.7659V13.708H16.3725V13.1927Z" fill="#3F3D56"/>
<path d="M16.3725 14.1202H15.7659V14.6354H16.3725V14.1202Z" fill="#3F3D56"/>
<path d="M15.3615 16.5933V16.078H14.7549V16.5933H15.311H15.3615Z" fill="#3F3D56"/>
<path d="M15.311 17.0054H14.7549V17.5206H15.3615V17.0054H15.311Z" fill="#3F3D56"/>
<path d="M16.3725 16.078H15.7659V16.5932H16.3725V16.078Z" fill="#3F3D56"/>
<path d="M16.3725 17.0054H15.7659V17.5207H16.3725V17.0054Z" fill="#3F3D56"/>
<path d="M15.3615 19.4785V18.9633H14.7549V19.4785H15.311H15.3615Z" fill="#3F3D56"/>
<path d="M15.311 19.8907H14.7549V20.4059H15.3615V19.8907H15.311Z" fill="#3F3D56"/>
<path d="M16.3725 18.9633H15.7659V19.4785H16.3725V18.9633Z" fill="#3F3D56"/>
<path d="M16.3725 19.8907H15.7659V20.4059H16.3725V19.8907Z" fill="#3F3D56"/>
<path d="M15.3615 22.3638V21.8485H14.7549V22.3638H15.311H15.3615Z" fill="#3F3D56"/>
<path d="M15.311 22.7759H14.7549V23.2911H15.3615V22.7759H15.311Z" fill="#3F3D56"/>
<path d="M16.3725 21.8485H15.7659V22.3637H16.3725V21.8485Z" fill="#3F3D56"/>
<path d="M16.3725 22.7759H15.7659V23.2912H16.3725V22.7759Z" fill="#3F3D56"/>
<path d="M6.36304 13.7079H12.2271V14.9445C10.3475 14.4158 8.38743 14.4537 6.36304 14.9445V13.7079Z" fill="#3F3D56"/>
<path d="M6.36304 16.181C8.19329 16.7306 10.148 16.7306 12.2271 16.181V17.4176H6.36304V16.181Z" fill="#3F3D56"/>
<path d="M6.36304 18.6541H12.2271V19.8907C10.2287 19.2403 8.27191 19.2096 6.36304 19.8907V18.6541Z" fill="#3F3D56"/>
<path d="M6.36304 21.1272C8.2755 21.8784 10.232 21.8471 12.2271 21.1272V22.3637H6.36304V21.1272Z" fill="#3F3D56"/>
<path d="M37.8797 18.9789H41.9999V21.0024L41.6319 21.1197L40.4076 21.5092L38.4868 21.0557L36.5681 20.6025L35.5549 20.3633L35.0491 20.1726C35.4699 19.5841 36.2353 19.1212 37.8797 18.9789Z" fill="#3F3D56"/>
<path d="M42 20.1726V26.3311H35.0491C35.0469 26.3273 35.0454 26.3239 35.0432 26.32V26.3197C35.0416 26.3154 35.0396 26.3112 35.0374 26.3072C34.9289 26.0846 34.8316 25.8626 34.7456 25.6412C34.0161 23.7673 34.0953 21.943 35.0491 20.1726H42Z" fill="#B0B0B0"/>
<path d="M39.4472 23.0851H38.0317V26.331H39.4472V23.0851Z" fill="#B0B0B0"/>
<path d="M36.5152 24.0125V23.4973H35.9086V24.0125H36.4647H36.5152Z" fill="#3F3D56"/>
<path d="M36.4647 24.4247H35.9086V24.94H36.5152V24.4247H36.4647Z" fill="#3F3D56"/>
<path d="M37.5262 23.4973H36.9196V24.0125H37.5262V23.4973Z" fill="#3F3D56"/>
<path d="M37.5262 24.4247H36.9196V24.9399H37.5262V24.4247Z" fill="#3F3D56"/>
<path d="M40.6604 24.0125V23.4973H40.0538V24.0125H40.6099H40.6604Z" fill="#3F3D56"/>
<path d="M40.6099 24.4247H40.0538V24.94H40.6604V24.4247H40.6099Z" fill="#3F3D56"/>
<path d="M41.6716 23.4973H41.0649V24.0125H41.6716V23.4973Z" fill="#3F3D56"/>
<path d="M41.6716 24.4247H41.0649V24.9399H41.6716V24.4247Z" fill="#3F3D56"/>
<path d="M36.5684 16.5879H37.4398C38.2992 16.5879 39.1235 16.9359 39.7312 17.5552C40.3389 18.1746 40.6803 19.0147 40.6803 19.8906H36.5684V16.5879Z" fill="#3F3D56"/>
<path d="M10.1754 7.62146H11.0468C11.9063 7.62146 12.7305 7.96943 13.3382 8.58881C13.946 9.2082 14.2874 10.0483 14.2874 10.9242H10.1754V7.62146Z" fill="#3F3D56"/>
<path d="M24.105 15.9155H24.9764C25.8358 15.9155 26.6601 16.2634 27.2678 16.8828C27.8755 17.5022 28.217 18.3423 28.217 19.2182H24.105V15.9155Z" fill="#3F3D56"/>
<path d="M40.6803 21.1272H36.5684V22.3637H40.6803V21.1272Z" fill="#3F3D56"/>
<path d="M42 26.2799H0.211182V26.4293H42V26.2799Z" fill="#3F3D56"/>
<path d="M4.06533 20.3766H3.9187V26.2796H4.06533V20.3766Z" fill="#3F3D56"/>
<path d="M5.41856 21.1289C5.42789 23.193 4.00303 24.873 4.00303 24.873C4.00303 24.873 2.1783 23.1707 2.55369 21.1424C2.93123 19.1024 4.10787 17.4069 3.96923 17.3983C3.96923 17.3983 5.40923 19.0648 5.41856 21.1289Z" fill="#B0B0B0"/>
<path d="M18.728 20.3766H18.5814V26.2796H18.728V20.3766Z" fill="#3F3D56"/>
<path d="M20.0812 21.1289C20.2134 23.1886 18.6657 24.873 18.6657 24.873C18.6657 24.873 17.2257 23.2065 17.2164 21.1424C17.207 19.0783 18.6319 17.3983 18.6319 17.3983C18.493 17.9641 19.9743 19.4624 20.0812 21.1289Z" fill="#B0B0B0"/>
<path d="M9.20178 10.7813L15.5708 10.4637L18.2426 12.7367L17.7703 13.1713L13.5394 13.0742L9.20178 10.7813Z" fill="#3F3D56"/>
<path d="M2.84677 21.3293L2.50367 21.6454L2.46188 21.6835L2.37463 21.7642L0.211144 21.7149V19.1101C0.140763 19.0944 0.0703812 19.0795 0 19.0653L0.175221 19.0563L0.211144 19.087L0.546188 19.3717L1.49927 20.1831L2.56378 21.0887L2.84677 21.3293Z" fill="#3F3D56"/>
<path d="M23.1315 19.3741L29.5005 19.0566L32.1723 21.3295L31.6999 21.7641L27.4691 21.6671L23.1315 19.3741Z" fill="#3F3D56"/>
</g>
<defs>
<clipPath id="clip0_3_3078">
<rect width="42" height="27" fill="white"/>
</clipPath>
</defs>
</svg>
